<?xml version="1.0" encoding="UTF-8" standalone="no"?>
<!-- Created with Inkscape (http://www.inkscape.org/) -->

<svg
   xmlns:osb="http://www.openswatchbook.org/uri/2009/osb"
   xmlns:dc="http://purl.org/dc/elements/1.1/"
   xmlns:cc="http://creativecommons.org/ns#"
   xmlns:rdf="http://www.w3.org/1999/02/22-rdf-syntax-ns#"
   xmlns:svg="http://www.w3.org/2000/svg"
   xmlns="http://www.w3.org/2000/svg"
   xmlns:xlink="http://www.w3.org/1999/xlink"
   xmlns:sodipodi="http://sodipodi.sourceforge.net/DTD/sodipodi-0.dtd"
   xmlns:inkscape="http://www.inkscape.org/namespaces/inkscape"
   width="66.320396mm"
   height="36.200081mm"
   viewBox="0 0 66.320396 36.200081"
   version="1.1"
   id="svg8"
   inkscape:version="0.92.4 (5da689c313, 2019-01-14)"
   sodipodi:docname="Logo.svg">
  <defs
     id="defs2">
    <inkscape:path-effect
       end_linecap_type="zerowidth"
       miter_limit="4"
       linejoin_type="extrp_arc"
       start_linecap_type="zerowidth"
       interpolator_beta="0.2"
       interpolator_type="CubicBezierJohan"
       sort_points="true"
       offset_points="0.22836693,-0.07323017"
       is_visible="true"
       id="path-effect6472"
       effect="powerstroke" />
    <linearGradient
       inkscape:collect="always"
       id="linearGradient6328">
      <stop
         style="stop-color:#015ee7;stop-opacity:1;"
         offset="0"
         id="stop6324" />
      <stop
         style="stop-color:#01cfe7;stop-opacity:1"
         offset="1"
         id="stop6326" />
    </linearGradient>
    <linearGradient
       id="linearGradient6320"
       osb:paint="solid">
      <stop
         style="stop-color:#015ee7;stop-opacity:1;"
         offset="0"
         id="stop6318" />
    </linearGradient>
    <linearGradient
       inkscape:collect="always"
       id="linearGradient4680">
      <stop
         style="stop-color:#015ee7;stop-opacity:0.90186918"
         offset="0"
         id="stop4676" />
      <stop
         style="stop-color:#01ffeb;stop-opacity:0"
         offset="1"
         id="stop4678" />
    </linearGradient>
    <inkscape:path-effect
       end_linecap_type="zerowidth"
       miter_limit="4"
       linejoin_type="extrp_arc"
       start_linecap_type="zerowidth"
       interpolator_beta="0.2"
       interpolator_type="CubicBezierJohan"
       sort_points="true"
       offset_points="0.22836693,-0.07323017"
       is_visible="true"
       id="path-effect4622"
       effect="powerstroke" />
    <inkscape:path-effect
       end_linecap_type="zerowidth"
       miter_limit="4"
       linejoin_type="extrp_arc"
       start_linecap_type="zerowidth"
       interpolator_beta="0.2"
       interpolator_type="CubicBezierJohan"
       sort_points="true"
       offset_points="0.22836693,-0.07323017"
       is_visible="true"
       id="path-effect4610"
       effect="powerstroke" />
    <inkscape:path-effect
       end_linecap_type="zerowidth"
       miter_limit="4"
       linejoin_type="extrp_arc"
       start_linecap_type="zerowidth"
       interpolator_beta="0.2"
       interpolator_type="CubicBezierJohan"
       sort_points="true"
       offset_points="0.22836693,-0.07323017"
       is_visible="true"
       id="path-effect4598"
       effect="powerstroke" />
    <inkscape:path-effect
       end_linecap_type="zerowidth"
       miter_limit="4"
       linejoin_type="extrp_arc"
       start_linecap_type="zerowidth"
       interpolator_beta="0.2"
       interpolator_type="CubicBezierJohan"
       sort_points="true"
       offset_points="0.22836693,-0.07323017"
       is_visible="true"
       id="path-effect4586"
       effect="powerstroke" />
    <inkscape:path-effect
       effect="powerstroke"
       id="path-effect4526"
       is_visible="true"
       offset_points="0.22836693,-0.07323017"
       sort_points="true"
       interpolator_type="CubicBezierJohan"
       interpolator_beta="0.2"
       start_linecap_type="zerowidth"
       linejoin_type="extrp_arc"
       miter_limit="4"
       end_linecap_type="zerowidth" />
    <inkscape:path-effect
       effect="powerstroke"
       id="path-effect4522"
       is_visible="true"
       offset_points="0,0.13229166"
       sort_points="true"
       interpolator_type="CubicBezierJohan"
       interpolator_beta="0.2"
       start_linecap_type="zerowidth"
       linejoin_type="extrp_arc"
       miter_limit="4"
       end_linecap_type="zerowidth" />
    <inkscape:path-effect
       effect="powerstroke"
       id="path-effect4526-5"
       is_visible="true"
       offset_points="0.22836693,-0.07323017"
       sort_points="true"
       interpolator_type="CubicBezierJohan"
       interpolator_beta="0.2"
       start_linecap_type="zerowidth"
       linejoin_type="extrp_arc"
       miter_limit="4"
       end_linecap_type="zerowidth" />
    <inkscape:path-effect
       effect="powerstroke"
       id="path-effect4526-3"
       is_visible="true"
       offset_points="0.22836693,-0.07323017"
       sort_points="true"
       interpolator_type="CubicBezierJohan"
       interpolator_beta="0.2"
       start_linecap_type="zerowidth"
       linejoin_type="extrp_arc"
       miter_limit="4"
       end_linecap_type="zerowidth" />
    <linearGradient
       inkscape:collect="always"
       xlink:href="#linearGradient4680"
       id="linearGradient4682"
       x1="-105.66762"
       y1="91.469734"
       x2="349.4765"
       y2="92.225685"
       gradientUnits="userSpaceOnUse"
       gradientTransform="matrix(1.0000018,0,0,1.3515982,-46.856662,295.99354)" />
    <linearGradient
       inkscape:collect="always"
       xlink:href="#linearGradient6328"
       id="linearGradient6330"
       x1="-105.66762"
       y1="91.469734"
       x2="337.65756"
       y2="91.469734"
       gradientUnits="userSpaceOnUse"
       gradientTransform="matrix(1.0000018,0,0,1.3515982,-46.856662,295.99354)" />
  </defs>
  <sodipodi:namedview
     id="base"
     pagecolor="#dedede"
     bordercolor="#666666"
     borderopacity="1.0"
     inkscape:pageopacity="0"
     inkscape:pageshadow="2"
     inkscape:zoom="2.8284271"
     inkscape:cx="124.15948"
     inkscape:cy="71.733606"
     inkscape:document-units="mm"
     inkscape:current-layer="layer1"
     showgrid="false"
     inkscape:pagecheckerboard="false"
     showborder="true"
     inkscape:window-width="1680"
     inkscape:window-height="987"
     inkscape:window-x="-8"
     inkscape:window-y="-8"
     inkscape:window-maximized="1"
     inkscape:snap-bbox="true"
     inkscape:bbox-paths="true"
     inkscape:bbox-nodes="true"
     inkscape:snap-bbox-edge-midpoints="true"
     inkscape:snap-bbox-midpoints="true"
     inkscape:snap-global="true"
     fit-margin-top="0"
     fit-margin-left="0"
     fit-margin-right="0"
     fit-margin-bottom="0" />
  <metadata
     id="metadata5">
    <rdf:RDF>
      <cc:Work
         rdf:about="">
        <dc:format>image/svg+xml</dc:format>
        <dc:type
           rdf:resource="http://purl.org/dc/dcmitype/StillImage" />
        <dc:title />
      </cc:Work>
    </rdf:RDF>
  </metadata>
  <g
     inkscape:label="Ebene 1"
     inkscape:groupmode="layer"
     id="layer1"
     transform="translate(38.233583,10.349406)">
    <path
       inkscape:connector-curvature="0"
       id="path6354"
       style="font-style:normal;font-variant:normal;font-weight:bold;font-stretch:normal;font-size:25.05498505px;line-height:1.25;font-family:'Berlin Sans FB Demi';-inkscape-font-specification:'Berlin Sans FB Demi, Bold';font-variant-ligatures:normal;font-variant-caps:normal;font-variant-numeric:normal;font-feature-settings:normal;text-align:start;letter-spacing:0px;word-spacing:0px;writing-mode:lr-tb;text-anchor:start;fill:#ffffff;fill-opacity:1;stroke:none;stroke-width:0.71120685"
       d="m -23.454587,-5.9083949 q 0,0.526074 -0.195748,0.91757 -1.60269,3.168677 -4.367636,6.667678 -0.391496,0.51384 -0.391496,0.929803 0,0.648421 0.0734,1.945244 0.0734,1.29684 0.0734,1.93302 0,0.22021 -0.09787,0.26916 -0.02447,0.0122 -0.330325,0.0612 -0.440433,0.0734 -2.202169,0.0734 -1.773969,0 -2.263341,-0.0734 -0.342559,-0.0489 -0.342559,-0.3548 0,-0.64841 0.110109,-1.96972 0.110108,-1.333526 0.110108,-1.994177 0,-0.391503 -0.293622,-0.844168 -1.480348,-2.09206104 -4.233059,-6.410759 -0.281388,-0.477137 -0.281388,-0.782994 0,-0.734056 -0.0734,-2.202168 -0.0734,-1.468113 -0.0734,-2.202169 0,-0.4037311 0.244685,-0.4037311 0.746291,0 2.263341,0.06117 1.517049,0.06117 2.275574,0.06117 0.281389,0 0.281389,0.183515 0,0.6239471 -0.06117,1.8840771 -0.04894,1.247896 -0.04894,1.871845 0,0.367027 1.076616,1.835139 0.856399,1.150022 1.406941,1.773971 0.501605,-0.587245 1.333536,-1.761736 1.052148,-1.468112 1.052148,-1.773969 0,-0.611714 -0.09787,-1.847376 -0.08564,-1.247896 -0.08564,-1.859609 0,-0.2569201 0.110108,-0.2936231 0,0 0.305857,0 0.734057,0 2.20217,-0.06117 1.480347,-0.0734 2.226638,-0.0734 0.244684,0 0.244684,0.5260731 0,0.648417 0.02447,1.957484 0.02447,1.296832 0.02447,1.957484 z" />
    <path
       sodipodi:nodetypes="ccssssssscsscscsssssssscsccc"
       inkscape:connector-curvature="0"
       id="path6358"
       style="font-style:normal;font-variant:normal;font-weight:bold;font-stretch:normal;font-size:25.05498505px;line-height:1.25;font-family:'Berlin Sans FB Demi';-inkscape-font-specification:'Berlin Sans FB Demi, Bold';font-variant-ligatures:normal;font-variant-caps:normal;font-variant-numeric:normal;font-feature-settings:normal;text-align:start;letter-spacing:0px;word-spacing:0px;writing-mode:lr-tb;text-anchor:start;fill:#ffffff;fill-opacity:1;stroke:none;stroke-width:0.71118402"
       d="m 27.878792,1.0940351 c 0,2.079758 -0.077,3.813495 -1.21874,4.895215 -2.40212,2.6411 -7.50714,4.1535299 -11.91145,0.0253 -1.00675,-0.94365 -1.34249,-2.865227 -1.34249,-4.308821 0,-0.334393 0.0122,-0.83190404 0.0367,-1.49253404 0.0245,-0.660629 0.0367,-1.154062 0.0367,-1.48029896 0,-0.946087 -0.0448,-2.365217 -0.13457,-4.25739 -0.0897,-1.892173 -0.13457,-3.307225 -0.13457,-4.245156 0,-0.195742 0.0856,-0.2936131 0.25691,-0.2936131 0.49752,0 1.24786,0.02039 2.25103,0.06117 1.01134,0.04078 1.76576,0.06117 2.26327,0.06117 0.2039,0 0.30585,0.08971 0.30585,0.269146 0,1.076581 -0.0367,2.691453 -0.11011,4.844616 -0.0653,2.145007 -0.0979,3.755801 -0.0979,4.83238196 0,1.28047904 0.13458,2.14500204 0.40372,2.59358204 0.35886,0.61169 1.10921,0.91754 2.25103,0.91754 1.67197,0 2.50795,-0.81151 2.50795,-2.43454 0,-1.18260904 -0.0285,-2.956521 -0.0856,-5.321738 -0.0571,-2.365217 -0.0856,-4.139129 -0.0856,-5.321737 0,-0.252834 0.10195,-0.379251 0.30584,-0.379251 0.4812,0 1.20708,-0.02039 2.17763,-0.06117 0.97056,-0.04078 1.69643,-0.06117 2.17763,-0.06117 0.23653,0 0.35479,0.09787 0.35479,0.2936131 0,0.937931 -0.0408,2.352983 -0.12234,4.245156 -0.0734,1.892173 -0.11011,3.311303 -0.11011,4.25739 0,0.260989 0.004,0.65655096 0.0122,1.18668596 0.008,0.521979 0.0122,0.913463 0.0122,1.17445304 z" />
    <g
       aria-label="CHAT"
       style="font-style:normal;font-variant:normal;font-weight:bold;font-stretch:normal;font-size:19.546175px;line-height:1.25;font-family:'Berlin Sans FB Demi';-inkscape-font-specification:'Berlin Sans FB Demi, Bold';font-variant-ligatures:normal;font-variant-caps:normal;font-variant-numeric:normal;font-feature-settings:normal;text-align:start;letter-spacing:0px;word-spacing:0px;writing-mode:lr-tb;text-anchor:start;opacity:1;fill:#ffffff;fill-opacity:1;stroke:none;stroke-width:0.42248711"
       id="text6352"
       transform="matrix(1.2977484,0,0,1.2977484,-144.9159,-131.03775)">
      <path
         style="font-style:normal;font-variant:normal;font-weight:bold;font-stretch:normal;font-size:19.546175px;font-family:'Berlin Sans FB Demi';-inkscape-font-specification:'Berlin Sans FB Demi, Bold';font-variant-ligatures:normal;font-variant-caps:normal;font-variant-numeric:normal;font-feature-settings:normal;text-align:start;writing-mode:lr-tb;text-anchor:start;fill:#ffffff;stroke-width:1.59680164"
         d="m 336.67188,404.83008 c -7.1663,0 -13.06969,2.66919 -17.71094,8.00781 -4.44887,5.09817 -6.67383,11.30269 -6.67383,18.61328 0,7.55108 2.2733,13.80395 6.81836,18.75781 4.6653,5.12221 10.74899,6.43164 18.25195,6.43164 9.7186,0.23671 20.88526,0.19776 29.54297,0.20508 3.75148,0 6.01172,-0.0724 6.78125,-0.21679 0.6493,-0.12024 0.97461,-0.54029 0.97461,-1.26172 0,-1.87573 -0.0614,-4.67881 -0.18164,-8.40625 -0.12024,-3.75149 -0.17969,-6.56373 -0.17969,-8.43946 0,-0.96196 0.26391,-1.50481 0.79297,-1.625 0.84168,-0.19225 3.77672,-0.2871 8.80273,-0.2871 5.00198,0 7.91088,0.0949 8.72852,0.2871 0.52906,0.14428 0.79297,0.68713 0.79297,1.625 0,1.8998 -0.0949,4.76037 -0.28711,8.58399 -0.16831,3.79958 -0.25195,6.64906 -0.25195,8.54883 0,0.50492 0.32336,0.83023 0.97265,0.97461 0.67334,0.14437 2.89831,0.21679 6.67383,0.21679 2.66933,0 4.73814,-0.0724 6.20508,-0.21679 0.57708,-0.0481 0.91351,-0.10763 1.00977,-0.17969 0.21644,-0.12024 0.32421,-0.43446 0.32421,-0.93945 0,-2.59719 -0.13196,-6.51536 -0.39648,-11.75782 -0.24038,-5.24243 -0.36133,-9.17564 -0.36133,-11.79687 0,-2.78957 0.10778,-6.9736 0.32422,-12.55274 0.24038,-5.57911 0.36133,-9.75204 0.36133,-12.51757 0,-0.57714 -0.34948,-0.86524 -1.04688,-0.86524 -0.72143,0 -1.80322,0.0373 -3.24609,0.10938 -1.41884,0.0721 -2.47643,0.10742 -3.17383,0.10742 -0.72143,0 -1.80322,-0.0354 -3.24609,-0.10742 -1.41884,-0.0721 -2.47839,-0.10938 -3.17578,-0.10938 -0.6012,0 -0.90039,0.37367 -0.90039,1.11914 0,1.75552 0.0836,4.38743 0.25195,7.89844 0.16831,3.48694 0.25195,6.09667 0.25195,7.82812 0,0.8416 -0.28807,1.33414 -0.86523,1.47852 -0.81762,0.1925 -3.79903,0.28906 -8.94532,0.28906 -5.53102,0 -8.60913,-0.0966 -9.23437,-0.28906 -0.45691,-0.1443 -0.68555,-0.63684 -0.68555,-1.47852 0,-1.80359 0.13196,-4.49693 0.39649,-8.08007 0.26453,-3.60721 0.39648,-6.31165 0.39648,-8.11524 0,-0.43285 -0.20446,-0.65039 -0.61328,-0.65039 -0.76953,0 -1.93493,0.0373 -3.49805,0.10938 -1.53907,0.0721 -2.69335,0.10742 -3.46289,0.10742 -0.74548,0 -1.8756,-0.0354 -3.39062,-0.10742 -1.49097,-0.0721 -2.60998,-0.10938 -3.35547,-0.10938 -0.50501,0 -0.75781,0.26391 -0.75781,0.79297 0,2.78954 0.12085,6.98667 0.36133,12.58984 0.24047,5.57914 0.35937,9.76317 0.35937,12.55274 0,2.62123 -0.13196,6.55444 -0.39648,11.79687 -0.009,0.2064 -0.0124,0.33872 -0.0215,0.54102 -7.54473,-1.54624 -15.11085,-0.71281 -22.19726,0.14258 -3.53505,0 -6.3623,-1.3457 -8.47852,-4.03907 -1.94789,-2.47695 -2.91992,-5.54392 -2.91992,-9.19921 0,-3.60719 0.97203,-6.63697 2.91992,-9.08985 2.11622,-2.64529 4.94347,-3.9668 8.47852,-3.9668 2.04407,10e-6 4.01622,0.47948 5.91601,1.44141 1.2505,0.64929 2.52368,1.55273 3.82227,2.70703 1.08215,0.96193 1.68446,1.44141 1.80468,1.44141 0.28858,0 0.52833,-0.0947 0.72071,-0.28711 0.43286,-0.36076 1.47936,-2.0095 3.13867,-4.94336 1.68336,-2.93386 2.52539,-4.62903 2.52539,-5.08594 0,-0.40879 -0.2417,-0.87719 -0.72266,-1.40625 -4.42482,-4.78552 -10.53268,-7.17773 -18.32421,-7.17773 z"
         transform="scale(0.26458333)"
         id="path6361"
         inkscape:connector-curvature="0"
         sodipodi:nodetypes="scsccccscscscscscsccscscsscscsscscscscsscscsscsccccsccccsccscs" />
      <path
         d="m 122.32924,120.57778 q 0,0.1718 -0.2386,0.2386 -0.28632,0.0764 -1.77519,0.0764 -1.3648,0 -1.7561,-0.0764 -0.3245,-0.0668 -0.41039,-0.42948 -0.3245,-1.37434 -0.50584,-1.46978 -0.1527,-0.0668 -2.5578,-0.0668 -1.62248,0 -1.72747,0.0859 -0.16225,0.1527 -0.36267,1.02121 -0.18134,0.79216 -0.43903,0.85896 -0.32449,0.0764 -2.17604,0.0764 -1.46023,0 -1.46023,-0.27678 0,-0.24815 2.15695,-6.09864 2.33829,-6.32769 2.53871,-6.9576 0.11453,-0.36267 0.26723,-0.36267 0.25769,0 0.79216,0.0477 0.54401,0.0477 0.81124,0.0477 0.25769,0 0.75398,-0.0286 0.50583,-0.0382 0.75398,-0.0382 0.18133,0 0.33404,0.31496 0.46766,1.00212 2.72959,6.8717 2.27148,5.90775 2.27148,6.16544 z m -6.76672,-8.69461 q -0.20042,0.41994 -0.67762,1.82291 -0.51538,1.48887 -0.51538,1.74656 0,0.17179 0.57264,0.19088 0.29587,0.0191 0.97349,0.0191 0.62991,0 0.69672,-0.15271 0.0191,-0.0477 0.0191,-0.13361 0,-0.31496 -0.43902,-1.73702 -0.42948,-1.37434 -0.62991,-1.7561 z"
         style="font-style:normal;font-variant:normal;font-weight:bold;font-stretch:normal;font-size:19.546175px;font-family:'Berlin Sans FB Demi';-inkscape-font-specification:'Berlin Sans FB Demi, Bold';font-variant-ligatures:normal;font-variant-caps:normal;font-variant-numeric:normal;font-feature-settings:normal;text-align:start;writing-mode:lr-tb;text-anchor:start;fill:#ffffff;stroke-width:0.42248711"
         id="path6365"
         inkscape:connector-curvature="0" />
      <path
         d="m 132.58908,111.32957 c 0,0.12725 -0.07,0.19088 -0.20997,0.19088 -0.24179,0 -1.19937,-0.0477 -2.87276,-0.14316 -0.0382,1.60976 -0.0573,1.74978 -0.0573,2.38605 0,0.7508 0.0286,1.88018 0.0859,3.38814 0.0636,1.50795 0.0954,2.63733 0.0954,3.38813 0,0.12089 -0.0286,0.19724 -0.0859,0.22905 -0.0191,0.0127 -0.10814,0.0286 -0.26723,0.0477 -0.38177,0.0509 -0.94168,0.0764 -1.67975,0.0764 -0.82079,0 -1.39661,-0.0255 -1.72747,-0.0764 -0.17816,-0.0318 -0.26724,-0.13042 -0.26724,-0.29586 0,-0.7508 0.0318,-1.877 0.0954,-3.37859 0.0636,-1.50159 0.0954,-2.62779 0.0954,-3.37859 0,-0.49629 -0.0255,-0.6204 -0.0764,-2.33833 -1.27253,0.12725 -2.27103,0.25245 -3.0252,0.18519 -0.0893,-0.008 -0.11025,-0.0153 -0.13451,-0.0783 -0.0306,-0.0796 0.007,-0.33906 0.0961,-0.74627 0.1299,-0.55716 0.19351,-2.17695 0.23856,-2.69137 0.0445,-0.4772 0.12089,-0.7158 0.22906,-0.7158 0.0127,0 0.0573,0.003 0.13361,0.01 1.03076,0.13362 1.93278,1.13489 4.48057,1.1454 2.5478,0.0105 2.81461,-1.09439 4.50991,-1.22171 0.12725,0 0.20042,0.01 0.21951,0.0286 0.0191,0.0127 0.0318,0.0732 0.0382,0.18134 0,0.17179 -0.006,0.41039 -0.0191,0.7158 -0.0373,0.47609 -0.0101,2.00674 0.0382,2.40505 0.0445,0.30541 0.0668,0.53446 0.0668,0.68717 z"
         style="font-style:normal;font-variant:normal;font-weight:bold;font-stretch:normal;font-size:19.546175px;font-family:'Berlin Sans FB Demi';-inkscape-font-specification:'Berlin Sans FB Demi, Bold';font-variant-ligatures:normal;font-variant-caps:normal;font-variant-numeric:normal;font-feature-settings:normal;text-align:start;writing-mode:lr-tb;text-anchor:start;fill:#ffffff;stroke-width:0.42248711"
         id="path6367"
         inkscape:connector-curvature="0"
         sodipodi:nodetypes="cscscsccscssscssccsczccccccc" />
    </g>
    <path
       style="color:#000000;font-style:normal;font-variant:normal;font-weight:normal;font-stretch:normal;font-size:medium;line-height:normal;font-family:sans-serif;font-variant-ligatures:normal;font-variant-position:normal;font-variant-caps:normal;font-variant-numeric:normal;font-variant-alternates:normal;font-feature-settings:normal;text-indent:0;text-align:start;text-decoration:none;text-decoration-line:none;text-decoration-style:solid;text-decoration-color:#000000;letter-spacing:normal;word-spacing:normal;text-transform:none;writing-mode:lr-tb;direction:ltr;text-orientation:mixed;dominant-baseline:auto;baseline-shift:baseline;text-anchor:start;white-space:normal;shape-padding:0;clip-rule:nonzero;display:inline;overflow:visible;visibility:visible;opacity:1;isolation:auto;mix-blend-mode:normal;color-interpolation:sRGB;color-interpolation-filters:linearRGB;solid-color:#000000;solid-opacity:1;vector-effect:none;fill:#ffffff;fill-opacity:1;fill-rule:nonzero;stroke:none;stroke-width:2.011271;stroke-linecap:round;stroke-linejoin:round;stroke-miterlimit:4;stroke-dasharray:none;stroke-dashoffset:0;stroke-opacity:1;paint-order:markers stroke fill;color-rendering:auto;image-rendering:auto;shape-rendering:auto;text-rendering:auto;enable-background:accumulate"
       d="m -13.79835,-10.012907 c -0.05399,0.0012 -0.107784,0.0067 -0.160881,0.01653 -4.729303,0.08904 -8.560246,3.955904 -8.559902,8.705755 2.75e-4,4.80492 3.916919,8.721772 8.721836,8.721842 H 2.6761323 10.392162 c 0.55577,2.3e-4 1.00636,-0.45039 1.00614,-1.00616 0.04,-2.53134 -0.0521,-5.258668 0,-7.715613 v -0.0013 c -6.5e-4,-4.804533 -3.9176797,-8.720778 -8.7221697,-8.720846 H -13.785893 c -0.0038,-2.2e-5 -0.0076,-2.2e-5 -0.01143,0 z m 0,2.0109821 h 10e-4 16.4730823 c 3.71766,5.3e-5 6.70929,2.992252 6.70987,6.709862 v 0.0013 c -0.0631,3.697687 -2.95298,6.653483 -6.70967,6.712143 H -13.797591 c -3.718023,-4e-5 -6.71099,-2.992849 -6.711202,-6.710859 -2.73e-4,-3.718011 2.991843,-6.710667 6.709846,-6.711204 z"
       id="path6373"
       inkscape:connector-curvature="0"
       sodipodi:nodetypes="ccccccccccccccccccccccc" />
    <flowRoot
       xml:space="preserve"
       id="flowRoot7551"
       style="font-style:normal;font-weight:normal;font-size:40px;line-height:1.25;font-family:sans-serif;letter-spacing:0px;word-spacing:0px;fill:#000000;fill-opacity:1;stroke:none"><flowRegion
         id="flowRegion7553"><rect
           id="rect7555"
           width="581"
           height="690"
           x="198"
           y="352.51968" /></flowRegion><flowPara
         id="flowPara7557" /></flowRoot>  </g>
</svg>
